# xmcd
#
# Track frame offsets: 
#        150
#        31630
#        65178
#        104423
#        127930
#        145722
#        173237
#        205667
#
# Disc length: 3112 seconds
#
# Revision: 0
# Processed by: cddbd v1.5PL3 Copyright (c) Steve Scherf et al.
# Submitted via: ExactAudioCopy v0.95a5
#
DISCID=690c2608
DTITLE=Papa Salty - Papa Salty
DYEAR=2003
DGENRE=Blues
TTITLE0=Going Straight
TTITLE1=Bobby Sox Blues
TTITLE2=Don't Bite The Hand
TTITLE3=Muddy Water
TTITLE4=Take Your Trouble
TTITLE5=Anything It Takes
TTITLE6=Love Her With A Feeling 
TTITLE7=Alimony Blues
EXTD=
EXTT0=
EXTT1=
EXTT2=
EXTT3=
EXTT4=
EXTT5=
EXTT6=
EXTT7=
PLAYORDER=
